<?xml version="1.0" encoding="utf-8"?>
<svg viewBox="-13.498 -15.996 70 82" width="70" height="82" xmlns="http://www.w3.org/2000/svg">
  <path d="M 13.939 33.642 L 1.237 20.54 C -0.411 18.811 -0.411 16.09 1.237 14.362 L 13.939 1.283 C 14.918 0.251 16.364 -0.202 17.759 0.082 C 21.079 0.759 22.337 4.982 19.937 7.462 L 13.237 14.362 C 11.578 16.091 11.578 18.829 13.237 20.561 L 19.937 27.459 C 20.797 28.34 21.176 29.442 21.176 30.52 C 21.176 32.481 19.897 34.381 17.777 34.821 C 16.379 35.119 14.938 34.661 13.939 33.621 L 13.939 33.642 Z" style="fill: rgb(0, 0, 0);"/>
  <path d="M 16.937 34.2 C 15.978 34.2 15.097 33.8 14.438 33.121 L 1.738 20.039 C 0.374 18.592 0.374 16.33 1.738 14.881 L 14.438 1.78 C 15.261 0.917 16.469 0.539 17.639 0.782 C 18.94 1.061 19.937 2.001 20.336 3.32 C 20.717 4.621 20.377 5.98 19.436 6.961 L 12.737 13.861 C 10.809 15.874 10.809 19.049 12.737 21.06 L 19.436 27.959 C 20.297 28.84 20.477 29.841 20.477 30.52 C 20.524 32.515 18.935 34.17 16.937 34.2 Z" style="fill: rgb(0, 0, 0);"/>
  <path d="M 28.059 48.72 L 40.758 35.641 C 42.416 33.921 42.416 31.162 40.758 29.442 L 28.059 16.4 C 27.076 15.371 25.631 14.915 24.238 15.202 C 20.918 15.88 19.658 20.101 22.057 22.559 L 28.757 29.482 C 30.416 31.18 30.416 33.94 28.757 35.661 L 22.057 42.56 C 21.197 43.441 20.818 44.56 20.818 45.64 C 20.818 47.579 22.097 49.501 24.218 49.939 C 25.62 50.221 27.056 49.78 28.059 48.741 L 28.059 48.72 Z" style="fill: rgb(0, 0, 0);"/>
  <path d="M 25.058 49.28 C 24.838 49.28 24.598 49.28 24.36 49.22 C 22.67 48.856 21.48 47.345 21.518 45.619 C 21.518 44.94 21.698 43.939 22.558 43.061 L 29.259 36.141 C 31.178 34.161 31.178 30.94 29.259 28.941 L 22.558 22.041 C 21.616 21.083 21.271 19.688 21.658 18.4 C 22.073 16.867 23.467 15.797 25.058 15.8 C 26.017 15.8 26.898 16.202 27.558 16.882 L 40.257 29.961 C 41.657 31.379 41.657 33.7 40.257 35.14 L 27.558 48.219 C 26.898 48.901 26.017 49.28 25.058 49.28 Z" style="fill: rgb(0, 0, 0);"/>
  <rect style="stroke: rgb(0, 0, 0); fill-rule: nonzero; fill: rgb(0, 0, 0); stroke-width: 6px; stroke-miterlimit: 1; stroke-linejoin: round; fill-opacity: 0; paint-order: fill;" x="-10.388" y="-12.886" width="63.665" height="75.665" rx="10" ry="10"/>
</svg>