<?xml version="1.0" encoding="iso-8859-1"?>
<!-- Uploaded to: SVG Repo, www.svgrepo.com, Generator: SVG Repo Mixer Tools -->
<!DOCTYPE svg PUBLIC "-//W3C//DTD SVG 1.1//EN" "http://www.w3.org/Graphics/SVG/1.1/DTD/svg11.dtd">
<svg fill="#000000" version="1.1" id="Capa_1" xmlns="http://www.w3.org/2000/svg" xmlns:xlink="http://www.w3.org/1999/xlink" 
	 width="800px" height="800px" viewBox="0 0 564.831 564.831"
	 xml:space="preserve">
<g>
	<g>
		<path d="M528.957,406.354c0.902,0,1.812-0.135,2.693-0.402c2.436-0.748,4.453-2.473,5.566-4.766
			c15.756-32.441,25.039-67.197,27.592-103.299c0.18-2.541-0.703-5.043-2.441-6.906c-1.736-1.863-4.168-2.922-6.717-2.922h-79.199
			c-4.715,0-8.662,3.57-9.135,8.262c-1.895,18.846-7.092,37.559-15.893,57.197c-1.926,4.295-0.289,9.352,3.787,11.705l69.16,39.904
			C525.777,405.938,527.363,406.354,528.957,406.354z"/>
		<path d="M434.15,513.088c0.678,0.154,1.363,0.232,2.049,0.232c1.828,0,3.627-0.545,5.162-1.588
			c29.732-20.215,55.117-45.68,75.455-75.688c1.432-2.111,1.918-4.721,1.346-7.205s-2.152-4.621-4.357-5.895l-68.623-39.6
			c-1.441-0.832-3.021-1.23-4.582-1.23c-2.879,0-5.697,1.354-7.479,3.85c-11.236,15.744-25.357,29.885-41.973,42.029
			c-3.787,2.768-4.879,7.938-2.537,11.998l39.639,68.738C429.523,510.936,431.662,512.518,434.15,513.088z"/>
		<path d="M302.465,559.639c0.215,0,0.432-0.006,0.65-0.021c36.18-2.559,70.939-11.854,103.311-27.637
			c2.289-1.117,4.012-3.131,4.756-5.566s0.443-5.07-0.83-7.273l-39.523-68.471c-1.688-2.926-4.766-4.594-7.955-4.594
			c-1.279,0-2.574,0.27-3.803,0.83c-17.676,8.062-37.033,13.209-57.535,15.297c-4.686,0.477-8.25,4.422-8.25,9.133v79.125
			c0,2.547,1.059,4.98,2.922,6.717C297.912,558.764,300.148,559.639,302.465,559.639z"/>
		<path d="M262.713,559.581c0.217,0.016,0.431,0.021,0.648,0.021c2.313,0,4.553-0.875,6.258-2.463
			c1.863-1.734,2.922-4.168,2.922-6.717v-79.201c0-4.713-3.568-8.66-8.256-9.135c-45.72-4.623-88.015-25.814-119.092-59.66
			c-31.353-34.146-48.62-78.447-48.62-124.745c0-59.208,29.085-115.585,77.807-150.812c3.815-2.757,4.923-7.953,2.57-12.032
			L137.421,46.41c-1.276-2.209-3.412-3.785-5.896-4.357c-0.679-0.156-1.368-0.232-2.053-0.232c-1.824,0-3.62,0.542-5.153,1.582
			C46.475,96.215,0,183.798,0,277.685c0,72.011,27.108,140.589,76.329,193.099C125.282,523.004,191.473,554.542,262.713,559.581z"/>
		<path d="M452.365,201.42c8.459,18.495,13.746,37.88,15.713,57.62c0.469,4.694,4.42,8.271,9.135,8.271h78.207
			c2.549,0,4.982-1.059,6.721-2.925s2.619-4.37,2.436-6.913c-2.607-36.307-11.883-71.026-27.562-103.189
			c-1.115-2.289-3.133-4.012-5.564-4.755c-0.879-0.269-1.785-0.401-2.684-0.401c-1.598,0-3.184,0.417-4.59,1.23l-68.053,39.293
			C452.025,192.02,450.398,197.118,452.365,201.42z"/>
		<path d="M441.549,43.405c-1.533-1.041-3.332-1.585-5.156-1.585c-0.686,0-1.373,0.076-2.051,0.232
			c-2.486,0.569-4.623,2.148-5.898,4.357l-39.527,68.471c-2.352,4.079-1.242,9.274,2.578,12.032
			c15.883,11.469,30.061,25.698,42.135,42.292c1.785,2.454,4.578,3.779,7.43,3.779c1.564,0,3.143-0.398,4.582-1.23l68.316-39.41
			c2.209-1.276,3.791-3.412,4.361-5.899c0.568-2.488,0.08-5.098-1.354-7.209C496.375,88.919,471.002,63.405,441.549,43.405z"/>
		<path d="M331.199,249V14.372c0-5.071-4.109-9.18-9.18-9.18h-78.211c-5.07,0-9.18,4.109-9.18,9.18V249c0,5.07,4.11,9.18,9.18,9.18
			h78.207C327.086,258.18,331.199,254.071,331.199,249z"/>
	</g>
</g>
</svg>